<svg xmlns="http://www.w3.org/2000/svg" xmlns:xlink="http://www.w3.org/1999/xlink" width="1000" zoomAndPan="magnify" viewBox="0 0 750 225" height="300" preserveAspectRatio="xMidYMid meet" version="1.0"><defs><g/><clipPath id="9d04c33249"><path d="M 22.5 31.230469 L 231.75 31.230469 L 231.75 202.230469 L 22.5 202.230469 Z M 22.5 31.230469 " clip-rule="nonzero"/></clipPath></defs><rect x="-75" width="900" fill="#ffffff" y="-22.5" height="270" fill-opacity="1"/><rect x="-75" width="900" fill="#ffffff" y="-22.5" height="270" fill-opacity="1"/><g clip-path="url(#9d04c33249)"><path fill="#096dd9" d="M 60.558594 128.085938 L 60.558594 166.144531 L 127.160156 202.488281 L 193.761719 166.144531 L 193.761719 128.085938 L 127.160156 164.433594 Z M 127.160156 31.230469 L 22.503906 88.316406 L 127.160156 145.402344 L 212.789062 98.6875 L 212.789062 164.433594 L 231.816406 164.433594 L 231.816406 88.316406 Z M 127.160156 31.230469 " fill-opacity="1" fill-rule="nonzero"/></g><g fill="#262626" fill-opacity="1"><g transform="translate(243.47435, 162.149099)"><g><path d="M 52.28125 -62.9375 C 55.976562 -62.9375 57.828125 -61.273438 57.828125 -57.953125 C 57.828125 -53.441406 57.546875 -50.351562 56.984375 -48.6875 C 56.429688 -47.03125 55.003906 -46.203125 52.703125 -46.203125 L 25.59375 -46.203125 L 25.59375 -16.734375 L 57.546875 -16.734375 C 59.753906 -16.640625 61.273438 -16.203125 62.109375 -15.421875 C 62.941406 -14.640625 63.359375 -13.460938 63.359375 -11.890625 C 63.359375 -7.378906 62.941406 -4.269531 62.109375 -2.5625 C 61.273438 -0.851562 59.613281 0 57.125 0 L 8.4375 0 L 6.21875 -2.21875 L 6.21875 -104.015625 L 55.328125 -104.015625 C 59.296875 -103.929688 61.28125 -102.457031 61.28125 -99.59375 C 61.1875 -97.101562 61.046875 -95.144531 60.859375 -93.71875 C 60.679688 -92.289062 60.109375 -90.882812 59.140625 -89.5 C 58.171875 -88.113281 56.765625 -87.421875 54.921875 -87.421875 L 24.0625 -87.421875 L 25.59375 -62.9375 Z M 52.28125 -62.9375 "/></g></g></g><g fill="#262626" fill-opacity="1"><g transform="translate(310.281133, 162.149099)"><g><path d="M 51.3125 -66.125 C 51.957031 -65.75 52.28125 -64.894531 52.28125 -63.5625 C 52.28125 -62.226562 51.957031 -60.453125 51.3125 -58.234375 C 50.113281 -54.179688 48.828125 -52.476562 47.453125 -53.125 L 47.3125 -53.125 L 42.46875 -55.046875 C 39.789062 -56.253906 36.535156 -56.859375 32.703125 -56.859375 C 28.878906 -56.859375 26.4375 -55.289062 25.375 -52.15625 C 24.320312 -49.019531 23.796875 -42.976562 23.796875 -34.03125 C 23.796875 -25.082031 24.460938 -19.0625 25.796875 -15.96875 C 27.128906 -12.882812 29.6875 -11.34375 33.46875 -11.34375 C 38.914062 -11.34375 43.160156 -11.664062 46.203125 -12.3125 C 49.242188 -12.957031 50.8125 -13.28125 50.90625 -13.28125 C 51.550781 -13.46875 52.082031 -13.097656 52.5 -12.171875 C 52.914062 -11.253906 53.125 -9.085938 53.125 -5.671875 C 53.125 -2.253906 52.382812 -0.363281 50.90625 0 C 45.1875 1.476562 39.5625 2.21875 34.03125 2.21875 C 22.875 2.21875 15.242188 -0.429688 11.140625 -5.734375 C 7.035156 -11.035156 4.984375 -20.648438 4.984375 -34.578125 C 4.984375 -44.628906 5.878906 -52.210938 7.671875 -57.328125 C 9.472656 -62.453125 12.351562 -65.984375 16.3125 -67.921875 C 20.28125 -69.859375 26.046875 -70.828125 33.609375 -70.828125 C 41.171875 -70.828125 47.03125 -69.257812 51.1875 -66.125 Z M 51.3125 -66.125 "/></g></g></g><g fill="#262626" fill-opacity="1"><g transform="translate(367.129141, 162.149099)"><g><path d="M 41.78125 -70.828125 C 48.601562 -70.828125 53.601562 -68.703125 56.78125 -64.453125 C 59.96875 -60.210938 61.5625 -52.742188 61.5625 -42.046875 L 61.5625 0 C 61.5625 0.550781 61.515625 0.921875 61.421875 1.109375 C 60.953125 1.847656 59.171875 2.21875 56.078125 2.21875 C 52.992188 2.21875 49.835938 1.984375 46.609375 1.515625 C 43.390625 1.054688 41.78125 0.550781 41.78125 0 L 41.640625 -42.046875 C 41.640625 -52.378906 40.898438 -57.546875 39.421875 -57.546875 C 36.097656 -57.546875 31.671875 -55.882812 26.140625 -52.5625 L 26.140625 0 C 26.140625 0.550781 26.09375 0.921875 26 1.109375 C 25.539062 1.847656 23.765625 2.21875 20.671875 2.21875 C 17.585938 2.21875 14.40625 1.984375 11.125 1.515625 C 7.851562 1.054688 6.21875 0.550781 6.21875 0 L 6.21875 -104.015625 C 6.21875 -105.492188 7.851562 -106.234375 11.125 -106.234375 C 14.40625 -106.234375 17.242188 -106.023438 19.640625 -105.609375 C 22.035156 -105.191406 23.28125 -104.660156 23.375 -104.015625 L 25.875 -64.046875 C 32.875 -68.566406 38.175781 -70.828125 41.78125 -70.828125 Z M 41.78125 -70.828125 "/></g></g></g><g fill="#262626" fill-opacity="1"><g transform="translate(431.307914, 162.149099)"><g><path d="M 5.125 -34.578125 C 5.125 -44.628906 6 -52.238281 7.75 -57.40625 C 9.5 -62.570312 12.265625 -66.097656 16.046875 -67.984375 C 19.828125 -69.878906 25.40625 -70.828125 32.78125 -70.828125 C 40.15625 -70.828125 45.734375 -69.878906 49.515625 -67.984375 C 53.296875 -66.097656 56.0625 -62.570312 57.8125 -57.40625 C 59.570312 -52.238281 60.453125 -44.628906 60.453125 -34.578125 C 60.453125 -20.742188 58.46875 -11.148438 54.5 -5.796875 C 50.53125 -0.453125 43.289062 2.21875 32.78125 2.21875 C 22.269531 2.21875 15.03125 -0.453125 11.0625 -5.796875 C 7.101562 -11.148438 5.125 -20.742188 5.125 -34.578125 Z M 23.9375 -34.578125 C 23.9375 -19.085938 25.410156 -11.34375 28.359375 -11.34375 C 32.410156 -11.34375 35.40625 -11.988281 37.34375 -13.28125 C 38.363281 -14.019531 39.054688 -15.359375 39.421875 -17.296875 C 40.160156 -21.160156 40.53125 -26.921875 40.53125 -34.578125 C 40.53125 -49.890625 39.054688 -57.546875 36.109375 -57.546875 C 30.566406 -57.546875 27.148438 -56.273438 25.859375 -53.734375 C 24.578125 -51.203125 23.9375 -44.816406 23.9375 -34.578125 Z M 23.9375 -34.578125 "/></g></g></g><g fill="#096dd9" fill-opacity="1"><g transform="translate(496.880589, 162.149099)"><g><path d="M 52.28125 -62.9375 C 55.976562 -62.9375 57.828125 -61.273438 57.828125 -57.953125 C 57.828125 -53.441406 57.546875 -50.351562 56.984375 -48.6875 C 56.429688 -47.03125 55.003906 -46.203125 52.703125 -46.203125 L 25.59375 -46.203125 L 25.59375 -16.734375 L 57.546875 -16.734375 C 59.753906 -16.640625 61.273438 -16.203125 62.109375 -15.421875 C 62.941406 -14.640625 63.359375 -13.460938 63.359375 -11.890625 C 63.359375 -7.378906 62.941406 -4.269531 62.109375 -2.5625 C 61.273438 -0.851562 59.613281 0 57.125 0 L 8.4375 0 L 6.21875 -2.21875 L 6.21875 -104.015625 L 55.328125 -104.015625 C 59.296875 -103.929688 61.28125 -102.457031 61.28125 -99.59375 C 61.1875 -97.101562 61.046875 -95.144531 60.859375 -93.71875 C 60.679688 -92.289062 60.109375 -90.882812 59.140625 -89.5 C 58.171875 -88.113281 56.765625 -87.421875 54.921875 -87.421875 L 24.0625 -87.421875 L 25.59375 -62.9375 Z M 52.28125 -62.9375 "/></g></g></g><g fill="#096dd9" fill-opacity="1"><g transform="translate(563.687372, 162.149099)"><g><path d="M 22.125 2.21875 C 15.300781 2.21875 10.300781 -0.570312 7.125 -6.15625 C 3.945312 -11.738281 2.359375 -21.441406 2.359375 -35.265625 C 2.359375 -49.097656 4.363281 -58.484375 8.375 -63.421875 C 12.382812 -68.359375 19.96875 -70.828125 31.125 -70.828125 L 37.765625 -70.828125 L 37.765625 -104.015625 C 37.765625 -105.492188 39.378906 -106.234375 42.609375 -106.234375 C 45.835938 -106.234375 48.507812 -106.023438 50.625 -105.609375 C 52.75 -105.191406 53.859375 -104.660156 53.953125 -104.015625 L 56.296875 -59.890625 L 56.296875 0 C 56.296875 0.550781 56.25 0.921875 56.15625 1.109375 C 55.695312 1.847656 53.988281 2.21875 51.03125 2.21875 C 48.082031 2.21875 45.570312 2.007812 43.5 1.59375 C 41.425781 1.175781 40.390625 0.644531 40.390625 0 L 37.765625 -4.28125 C 35.085938 -2.53125 33.195312 -1.285156 32.09375 -0.546875 C 29.050781 1.296875 25.726562 2.21875 22.125 2.21875 Z M 31.125 -57.546875 C 27.707031 -57.546875 25.375 -56.140625 24.125 -53.328125 C 22.882812 -50.515625 22.265625 -45.765625 22.265625 -39.078125 C 22.265625 -32.390625 22.285156 -27.984375 22.328125 -25.859375 C 22.378906 -23.742188 22.453125 -21.300781 22.546875 -18.53125 C 22.734375 -13.550781 23.378906 -11.0625 24.484375 -11.0625 C 27.804688 -11.0625 32.234375 -12.722656 37.765625 -16.046875 L 37.765625 -57.546875 Z M 31.125 -57.546875 "/></g></g></g><g fill="#096dd9" fill-opacity="1"><g transform="translate(626.068038, 162.149099)"><g><path d="M 25.59375 2.21875 C 18.769531 2.21875 13.765625 0.0976562 10.578125 -4.140625 C 7.398438 -8.390625 5.8125 -15.863281 5.8125 -26.5625 L 5.8125 -68.609375 C 5.8125 -70.085938 7.492188 -70.828125 10.859375 -70.828125 C 14.222656 -70.828125 17.519531 -70.59375 20.75 -70.125 C 23.976562 -69.664062 25.59375 -69.160156 25.59375 -68.609375 L 25.734375 -26.5625 C 25.734375 -16.226562 26.46875 -11.0625 27.9375 -11.0625 C 31.257812 -11.0625 35.6875 -12.722656 41.21875 -16.046875 L 41.21875 -68.609375 C 41.21875 -70.085938 42.898438 -70.828125 46.265625 -70.828125 C 49.628906 -70.828125 52.945312 -70.59375 56.21875 -70.125 C 59.5 -69.664062 61.140625 -69.160156 61.140625 -68.609375 L 61.140625 0 C 61.140625 0.550781 61.046875 0.921875 60.859375 1.109375 C 60.492188 1.847656 58.117188 2.21875 53.734375 2.21875 C 49.359375 2.21875 46.660156 1.476562 45.640625 0 L 42.75 -4.28125 C 36.289062 0.0507812 30.570312 2.21875 25.59375 2.21875 Z M 25.59375 2.21875 "/></g></g></g></svg>